<?xml version="1.0" encoding="utf-8"?>
<!-- Generator: Adobe Illustrator 24.0.3, SVG Export Plug-In . SVG Version: 6.00 Build 0)  -->
<svg version="1.1" id="spock" xmlns="http://www.w3.org/2000/svg" xmlns:xlink="http://www.w3.org/1999/xlink" x="0px" y="0px"
	 viewBox="0 0 170 170" style="enable-background:new 0 0 170 170;" xml:space="preserve">
<style type="text/css">
	.st0{fill:#F0EC7B;}
</style>
<title>spock</title>
<path class="st0" d="M168.5,84.7c-0.8,48-38.4,84.6-86,83.8C36.6,167.7,0.2,129.2,1,82.4C1.8,36.6,40.4-0.1,87.2,1.1
	C133.1,2.2,168.5,40,168.5,84.7z M7.8,86.2c0.3,19.7,7.6,37.9,22.5,53c16,16.1,35.8,24.2,58.1,23c43.2-2.5,73.6-36.2,73.9-76.7
	C162.8,43,128.7,8.1,86.2,7.6H85C42.5,7.4,7.9,42.1,7.8,86.2z"/>
<path class="st0" d="M77.2,83.2c3.1-2.3,2.1-5.5,1.7-8.6c-1.3-9.7-2.6-19.4-3.9-29.2c-0.2-1.8-1.1-2-2.6-1.8
	c-3.7,0.6-6.1,3.5-5.9,7.7c0.3,6.8,0.9,13.6,1.2,20.4c0.4,9.2,0.8,18.5-0.2,27.7c-0.4,3.4-1.5,4.1-4.8,3.6c-2.7-0.4-4.8-1.9-6.8-3.5
	c-3.8-2.8-7.4-5.9-12-7.5c-3-1-5.9-1-8.5,1c-1.8,1.4-1.9,2.5-0.4,4.1c0.2,0.3,0.4,0.5,0.7,0.7c8.3,5.3,14.2,13,19.9,20.8
	c3,3.9,6.4,7.4,10.2,10.6c2,1.7,3.1,4.1,3.2,6.7c0.2,4.7,0.6,9.3,0.6,14c0,1.8-0.4,2.1-2.1,1.6c-11-2.8-21.2-8.3-29.5-16.1
	c-27.2-24.7-30.3-66.3-7.1-94.8c11.5-14.6,28.5-23.8,47-25.4C116,11.3,150.1,39,154,77.1c3.4,32.6-16.5,63-47.6,73.1
	c-2.8,0.9-2.8,0.9-2.9-2.1c0-4.4,0-8.8-0.1-13.2c-0.3-2.8,0.6-5.5,2.4-7.6c6.2-7,7.8-15.4,7.7-24.4c-0.2-9.9,2.7-19.4,4.7-29
	c0.8-3.7,1.7-7.5,2.5-11.2c0.4-2.1-0.1-3.9-2.3-4.7c-1.3-0.5-2.3-0.4-3,1.3c-3,7.9-6.1,15.8-9.4,23.7c-0.7,1.8,1.3,2.6,0.8,4.4
	c-1.9-1.8-4.1-3.1-6.5-4c3.4,0.7,3.9-1.7,4.7-3.8c2.8-7.3,5.7-14.6,8.6-21.8c0.9-2.3,1.5-4.8,1.5-7.3c0-2.4-1.7-4.5-4-5.1
	s-3.8,0.3-4.8,2.8c-3.3,8.9-6.5,17.8-9.8,26.7c-0.6,1.6-1.3,3.2-2.1,4.8c-0.4,0.8-0.5,1.9-1.8,1.7s-1.5-1.1-1.7-2.2
	c-0.6-4.7-1.3-9.4-2-14.1c-1-7.5-2-15-3.1-22.5c-0.5-3.7-3.7-5.2-7-3.5c-1.3,0.5-2.1,1.8-1.9,3.2c1.6,12.1,3.2,24.2,4.7,36.4
	c0.3,2,2.5,1.5,3.3,3.1c-2.5,0-5,0.5-7.3,1.7C77.5,83.5,77.3,83.3,77.2,83.2L77.2,83.2z M94,68.4c0.6-1.1,0.8-1.6,1-2
	c1.7-4.6,3.2-9.3,5-13.8c1.1-2.9,1.5-6,3.3-8.5c2.3-3.1,6.5-4.2,10-2.6c4.4,1.9,7.2,6.2,6.5,10.5c-0.3,1.5,0,2,1.3,2.7
	c3.3,1.7,5,5.4,4.1,9c-0.7,3.1-1.3,6.2-2.1,9.2c-3.1,12.6-5.4,25.3-5.7,38.3c0,5.4-1.8,10.6-5.1,14.8c-3.1,4-5.3,8.2-4.3,13.5v0.2
	c0,3,0,3,2.9,1.7c7.2-3.4,13.7-8.2,19.2-14c14.3-15.3,19.4-33.5,16.2-53.9c-2.1-13.5-8.5-25.1-18.5-34.6c-14-13.3-30.8-19-49.8-17.2
	C62.4,23,47.9,30.3,37.6,42.1c-13,14.5-18,31.5-15.6,50.7c2.2,17.1,10.4,30.8,24,41.4c4.8,3.7,10.1,6.8,15.8,8.9
	c0.9,0.4,2.6,1.1,2.6-0.4c0.1-3.7,1-7.6-2.5-10.7c-3.6-3-6.8-6.4-9.7-10.1c-4-5.1-7.6-10.5-12.4-15c-2.6-2.4-5.7-4-8.2-6.5
	c-3.6-3.8-3.2-8,1-11s8.7-3.1,13.3-1.4c5,1.8,9,5.2,13.2,8.4c1.1,0.8,2.5,2.1,3.4,1.6c1.1-0.5,0.9-2.4,0.9-3.8
	c0.3-9.9-0.1-19.8-0.6-29.7c-0.2-3.3-0.3-6.6-0.7-9.9c-0.9-7.1,1.2-13.9,9.9-15.5c0.9-0.2,1.2-0.8,1.6-1.4c2.3-2.9,6.2-4.3,9.8-3.4
	c4,0.7,6,3.4,6.6,7.1c0.9,5.4,1.5,10.8,2.3,16.2C92.9,61,93.4,64.3,94,68.4L94,68.4z"/>
<path class="st0" d="M87.7,125.1c1-9.3-2.3-16.4-11-20.7c2.6-0.7,4.9-0.1,7.3,1.9c4.4,3.7,5.9,8.5,5.3,14c-0.2,1.6-0.6,3.1-0.8,4.6
	C88.2,125,87.9,125,87.7,125.1z"/>
<path class="st0" d="M87.7,125.1c0.3,0,0.5-0.1,0.8-0.1c0,0.8-0.3,1.6-0.7,2.3C87.4,126.6,87.3,125.8,87.7,125.1z"/>
<path class="st0" d="M77.6,83.6c-0.2,0.3-0.6,0.5-0.8,0.3s0.2-0.4,0.4-0.7C77.2,83.2,77.6,83.6,77.6,83.6z"/>
</svg>
