<?xml version="1.0" encoding="utf-8"?>
<!-- Generator: Adobe Illustrator 24.0.3, SVG Export Plug-In . SVG Version: 6.00 Build 0)  -->
<svg version="1.1" id="scissors" xmlns="http://www.w3.org/2000/svg" xmlns:xlink="http://www.w3.org/1999/xlink" x="0px" y="0px"
	 viewBox="0 0 340.2 340.2" style="enable-background:new 0 0 340.2 340.2;" xml:space="preserve">
<style type="text/css">
	.st0{fill:#F0EC7B;}
</style>
<g>
	<title>scissors</title>
	<path class="st0" d="M169.5,337.1C76.9,337.1,2,261.9,2.1,169.3C2.2,76.9,77.1,2,169.5,2.1h0.6c93.2,0.4,166.9,75.3,167,168
		C337.1,262.3,261.9,337.1,169.5,337.1z M323.6,169C324.2,84.8,255.2,14.7,171,14.3c-42.4-0.2-79.3,14.4-109.6,44.1
		C27.3,91.8,11.3,133.2,15,180.3c6.7,85,75.9,141.5,151.1,143C251.7,325,323.7,256.1,323.6,169L323.6,169z"/>
	<g>
		<g>
			<g>
				<path class="st0" d="M259.9,104.5H79.4c-5.5,0-10,4.7-10,10.6v112.6c0,5.8,4.5,10.6,10,10.6h57.3l-8.9,14.1h-18.3
					c-1.8,0-3.3,1.6-3.3,3.5s1.5,3.5,3.3,3.5h120.4c1.8,0,3.3-1.6,3.3-3.5s-1.5-3.5-3.3-3.5h-18.3l-8.9-14.1h57.3
					c5.5,0,10-4.7,10-10.6V115.1C270,109.3,265.5,104.5,259.9,104.5z M203.5,252.4h-67.7l8.9-14.1h49.9L203.5,252.4z M263.3,227.7
					c0,1.9-1.5,3.5-3.3,3.5H79.4c-1.8,0-3.3-1.6-3.3-3.5V115.1c0-1.9,1.5-3.5,3.3-3.5h180.6c1.8,0,3.3,1.6,3.3,3.5V227.7z"/>
			</g>
		</g>
		<g>
			<g>
				<path class="st0" d="M79.4,115.1v112.6h180.6V115.1H79.4z M253.2,220.7H86.1v-98.5h167.2V220.7z"/>
			</g>
		</g>
	</g>
	<path class="st0" d="M169.6,307.2c-76.5,0-138.3-62.1-138.2-138.6C31.4,92.3,93.3,30.5,169.6,30.6h0.5
		c77,0.3,137.8,62.2,137.9,138.7C308,245.4,245.9,307.2,169.6,307.2z M296.8,168.4c0.5-69.5-56.5-127.4-126-127.7
		c-35-0.2-65.5,11.9-90.5,36.4C52.1,104.6,38.9,138.8,42,177.7c5.5,70.2,62.7,116.8,124.8,118.1
		C237.4,297.2,296.9,240.3,296.8,168.4L296.8,168.4z"/>
</g>
</svg>
