<?xml version="1.0" encoding="utf-8"?>
<!-- Generator: Adobe Illustrator 24.0.3, SVG Export Plug-In . SVG Version: 6.00 Build 0)  -->
<svg version="1.1" id="lizard" xmlns="http://www.w3.org/2000/svg" xmlns:xlink="http://www.w3.org/1999/xlink" x="0px" y="0px"
	 viewBox="0 0 340.1 340.2" style="enable-background:new 0 0 340.1 340.2;" xml:space="preserve">
<style type="text/css">
	.st0{fill:#F0EC7B;}
	.st1{fill:#447391;}
</style>
<title>lizard</title>
<g>
	<path class="st0" d="M169.5,2.1C259.6,2.3,336,72.4,337,167c1.1,102.5-81.3,170.3-167.5,170.1C76.9,337,2,261.9,2.1,169.3
		C2.1,77.1,77.1,2.1,169.5,2.1z M156.3,324.6c100-0.3,168.8-69.6,168.8-154.5c0-85.6-69.4-154.6-154.9-154.4
		c-85.9,0.2-156,70.8-154,157.7c1,42,16.6,78.1,46.8,107.4S129.8,324.3,156.3,324.6L156.3,324.6z"/>
	<path class="st0" d="M96,286.2c-1.9,0.1-3.1-1.2-4.3-2.1c-47.4-35-68.6-81.9-57.8-139.8S81,48.6,138.3,34.5
		c77.6-19.2,154.5,32.4,168.6,111.1c14,78.2-42.5,153.5-121.4,161.9c-7.3,0.8-14.6,0.7-22,0.8c-2.6,0-3.8-1-4.3-3.6
		c-4.9-24.3-5.6-48.9-5.3-73.6c0.1-4,2.1-6.9,4.8-9.5c7.4-7.5,16.7-12.8,23.9-20.4c12.8-13.4,27.1-25.3,42.5-35.4
		c5.2-3.5,5.1-7.7-0.2-11.4c-6.3-4.4-13.2-3.7-20.2-1.7c-4,1.2-7.6,3.5-11,5.8c-9,5.9-18.9,8-29.4,7.6c-8.1-0.3-16.4-7-19-14.9
		c-1.4-4.4-0.4-7.8,3.5-10.5c5.3-3.7,11.4-5.5,17.6-6.8c17.9-3.7,35.1,0.3,52.2,4.6c3.9,1,7.7,2.1,11.6,2.9
		c8.2,1.7,13.7-1.8,15.8-9.7c1-3.7,0.2-5.8-3.7-7.2c-11.2-3.8-22.2-8-33.3-12.1c-7.7-2.6-15.2-6-22.3-10c-4.5-2.7-10-3.2-14.8-1.3
		c-11.9,4.1-23.9,8.2-35.9,12.2c-2.1,0.7-4.2,1.8-6.6,1.4c-0.7-2.2,1-2.1,1.9-2.4c13.2-5.1,26.5-9.9,39.4-15.6
		c5.1-2.2,10.4-2.6,15.5,0.1c17.5,9.5,36.5,15.2,55,22.1c3.5,1.3,7.4,2.2,10.4,6.3c0.8-4.9,0-7.9-4-9.4
		c-22.4-8.5-43.9-19.2-65.5-29.5c-6.5-3.1-13.4-3.5-19.7,0.2c-15.2,8.9-31.4,15.9-47.3,23.6c-3.8,1.8-7.3,4.1-10.4,6.8
		c-4.1,3.3-6.6,8.1-6.9,13.3c-1,14.2-4.8,27.8-7.8,41.6c-4.5,20.7-5.6,41.2-0.8,62.3c3.9,16.9,5.7,34.4,6.9,51.9L96,286.2L96,286.2z
		 M233.2,150c-0.4-0.2-0.7-0.4-1.1-0.6l-0.3,0.3l1.2,0.6c0.2,0.8,0.5,1.6,0.8,2.3c4.6,9.3,4.2,14.3-4.5,19.4
		c-23.6,14.1-40.3,36.2-62.4,51.9c-4.4,3.1-6.2,7.4-5.9,12.9c0.7,11.1,0.6,22.3,1.2,33.4c0.3,6.5,1.3,12.9,2,19.3
		c0.4,4.1,2.1,6.2,6.7,5.6c6.2-0.9,12.6-1,18.8-2c31.9-5.4,58.2-20.7,78-46.1c23.5-30.2,32-64.4,24.6-102.2
		c-5.9-30.1-20.9-54.8-44.9-73.9c-28.3-22.5-60.7-31.5-96.3-26.4C120,48.8,93.8,63.1,73.3,87.2c-24.8,29.2-34.2,63.1-29,100.8
		c3,21.9,12.1,42.5,26.1,59.6c4.4,5.5,8.5,11.4,15.7,15.6c-1.8-13-2.6-25.2-5.6-37c-2.2-8.4-3-17.1-2.3-25.7c1-11.1,3-22,5.1-32.9
		c2.5-13.2,6.5-26.1,6.9-39.7c0.3-3.7,1.6-7.2,3.7-10.2c4.5-6.9,11.1-10.9,18.1-14.5c13.7-6.9,28.2-12.1,41.1-20.3
		c12.2-7.8,24.3-7.7,36.8-1.2c6.7,3.4,13.5,6.6,20.3,9.7c13.5,6.2,26.8,12.6,40.8,17.7c9.1,3.3,12.4,17,4,22.7
		c-0.8,0.5-1.5,1.4-1.8,2.3C250.4,144.3,243.2,149,233.2,150L233.2,150z M207.3,144c-10.6-3.3-21.8-4.6-32.9-3.8
		c-6.8,0.4-13.5,2.2-19.5,5.5c-1.2,0.7-2.8,1.1-2.4,3.2c0.6,3.3,6.2,9,9.8,9.2c4.8,0.3,9.6,0.2,14.4-0.5
		C188.1,155.6,195.7,145.6,207.3,144L207.3,144z"/>
</g>
<path class="st1" d="M96.2,286l0.4,0.6l-0.5-0.4L96.2,286z"/>
</svg>
