<?xml version="1.0" encoding="utf-8"?>
<!-- Generator: Adobe Illustrator 24.0.3, SVG Export Plug-In . SVG Version: 6.00 Build 0)  -->
<svg version="1.1" id="lizard" xmlns="http://www.w3.org/2000/svg" xmlns:xlink="http://www.w3.org/1999/xlink" x="0px" y="0px"
	 viewBox="0 0 340.1 340.2" style="enable-background:new 0 0 340.1 340.2;" xml:space="preserve">
<style type="text/css">
	.st0{fill:#447391;}
	.st1{fill:#FCFCFD;}
	.st2{fill:#77AFBF;}
	.st3{fill:#FFFCB4;}
</style>
<title>lizard</title>
<path class="st0" d="M592.8,2.1C682.9,2.3,759.3,72.4,760.3,167c1.1,102.5-81.3,170.3-167.5,170.1c-92.6-0.1-167.5-75.2-167.4-167.8
	C425.4,77.1,500.4,2.1,592.8,2.1z M579.6,324.6c100-0.3,168.8-69.6,168.8-154.5c0-85.6-69.4-154.6-154.9-154.4
	c-85.9,0.2-156,70.8-154,157.7c1,42,16.6,78.1,46.8,107.4C516.5,310.1,553.1,324.3,579.6,324.6L579.6,324.6z"/>
<path class="st1" d="M579.6,324.6c-26.5-0.3-63.1-14.5-93.2-43.8s-45.9-65.4-46.8-107.4c-2-86.9,68-157.5,154-157.7
	c85.4-0.2,154.8,68.8,154.8,154.4C748.4,255,679.6,324.3,579.6,324.6L579.6,324.6z M519.3,286.2l0.5,0.4l-0.4-0.6
	c-1.1-17.5-3-34.9-6.9-51.9c-4.9-21.1-3.7-41.5,0.8-62.3c3-13.8,6.8-27.5,7.8-41.6c0.4-5.2,2.9-10,6.9-13.3c3.2-2.7,6.7-5,10.4-6.8
	c15.8-7.7,32-14.7,47.3-23.6c6.3-3.7,13.2-3.3,19.7-0.2c21.6,10.4,43.1,21,65.5,29.5c4,1.5,4.9,4.6,4,9.4c-3.1-4.1-6.9-4.9-10.4-6.3
	c-18.5-7-37.5-12.7-55-22.1c-5-2.7-10.3-2.4-15.5-0.1c-13,5.7-26.3,10.5-39.4,15.6c-0.9,0.3-2.6,0.3-1.9,2.4
	c2.3,0.4,4.4-0.7,6.6-1.4c12-4,23.9-8.1,35.9-12.2c4.9-1.9,10.4-1.4,14.8,1.3c7.1,4,14.5,7.4,22.3,10c11.1,4,22.2,8.2,33.3,12.1
	c3.9,1.4,4.7,3.5,3.7,7.2c-2.1,7.9-7.6,11.5-15.8,9.7c-3.9-0.8-7.7-2-11.6-2.9c-17.2-4.3-34.4-8.3-52.2-4.6
	c-6.2,1.3-12.3,3.1-17.6,6.8c-3.8,2.6-4.9,6.1-3.5,10.5c2.5,7.8,10.8,14.5,19,14.9c10.5,0.4,20.5-1.7,29.4-7.6c3.5-2.3,7-4.6,11-5.8
	c6.9-2,13.8-2.7,20.2,1.7c5.3,3.7,5.5,7.9,0.2,11.4c-15.5,10.1-29.7,22-42.5,35.4c-7.2,7.6-16.5,12.9-23.9,20.4
	c-2.7,2.7-4.7,5.6-4.8,9.5c-0.3,24.7,0.4,49.3,5.3,73.6c0.5,2.6,1.7,3.6,4.3,3.6c7.3-0.1,14.6,0,22-0.8
	c79-8.4,135.5-83.6,121.4-161.9c-14-78.8-90.9-130.3-168.5-111.1c-57.4,14.1-93.8,51.7-104.6,109.7c-10.8,58,10.4,104.9,57.8,139.9
	C516.2,285,517.4,286.3,519.3,286.2L519.3,286.2z"/>
<path class="st0" d="M519.3,286.2c-1.9,0.1-3.1-1.2-4.3-2.1c-47.4-35-68.6-81.9-57.8-139.8C468,86.4,504.3,48.6,561.6,34.5
	c77.6-19.2,154.5,32.4,168.6,111.1c14,78.2-42.5,153.5-121.4,161.9c-7.3,0.8-14.6,0.7-22,0.8c-2.6,0-3.8-1-4.3-3.6
	c-4.9-24.3-5.6-48.9-5.3-73.6c0.1-4,2.1-6.9,4.8-9.5c7.4-7.5,16.7-12.8,23.9-20.4c12.8-13.4,27.1-25.3,42.5-35.4
	c5.2-3.5,5.1-7.7-0.2-11.4c-6.3-4.4-13.2-3.7-20.2-1.7c-4,1.2-7.6,3.5-11,5.8c-9,5.9-18.9,8-29.4,7.6c-8.1-0.3-16.4-7-19-14.9
	c-1.4-4.4-0.4-7.8,3.5-10.5c5.3-3.7,11.4-5.5,17.6-6.8c17.9-3.7,35.1,0.3,52.2,4.6c3.9,1,7.7,2.1,11.6,2.9
	c8.2,1.7,13.7-1.8,15.8-9.7c1-3.7,0.2-5.8-3.7-7.2c-11.2-3.8-22.2-8-33.3-12.1c-7.7-2.6-15.2-6-22.3-10c-4.5-2.7-10-3.2-14.8-1.3
	c-11.9,4.1-23.9,8.2-35.9,12.2c-2.1,0.7-4.2,1.8-6.6,1.4c-0.7-2.2,1-2.1,1.9-2.4c13.2-5.1,26.5-9.9,39.4-15.6
	c5.1-2.2,10.4-2.6,15.5,0.1c17.5,9.5,36.5,15.2,55,22.1c3.5,1.3,7.4,2.2,10.4,6.3c0.8-4.9,0-7.9-4-9.4
	c-22.4-8.5-43.9-19.2-65.5-29.5c-6.5-3.1-13.4-3.5-19.7,0.2c-15.2,8.9-31.4,15.9-47.3,23.6c-3.8,1.8-7.3,4.1-10.4,6.8
	c-4.1,3.3-6.6,8.1-6.9,13.3c-1,14.2-4.8,27.8-7.8,41.6c-4.5,20.7-5.6,41.2-0.8,62.3c3.9,16.9,5.7,34.4,6.9,51.9L519.3,286.2
	L519.3,286.2z M656.5,150c-0.4-0.2-0.7-0.4-1.1-0.6l-0.3,0.3l1.2,0.6c0.2,0.8,0.5,1.6,0.8,2.3c4.6,9.3,4.2,14.3-4.5,19.4
	c-23.6,14.1-40.3,36.2-62.4,51.9c-4.4,3.1-6.2,7.4-5.9,12.9c0.7,11.1,0.6,22.3,1.2,33.4c0.3,6.5,1.3,12.9,2,19.3
	c0.4,4.1,2.1,6.2,6.7,5.6c6.2-0.9,12.6-1,18.8-2c31.9-5.4,58.2-20.7,78-46.1c23.5-30.2,32-64.4,24.6-102.2
	c-5.9-30.1-20.9-54.8-44.9-73.9c-28.3-22.5-60.7-31.5-96.3-26.4c-31.1,4.3-57.3,18.6-77.8,42.7c-24.8,29.2-34.2,63.1-29,100.8
	c3,21.9,12.1,42.5,26.1,59.6c4.4,5.5,8.5,11.4,15.7,15.6c-1.8-13-2.6-25.2-5.6-37c-2.2-8.4-3-17.1-2.3-25.7c1-11.1,3-22,5.1-32.9
	c2.5-13.2,6.5-26.1,6.9-39.7c0.3-3.7,1.6-7.2,3.7-10.2c4.5-6.9,11.1-10.9,18.1-14.5c13.7-6.9,28.2-12.1,41.1-20.3
	c12.2-7.8,24.3-7.7,36.8-1.2c6.7,3.4,13.5,6.6,20.3,9.7c13.5,6.2,26.8,12.6,40.8,17.7c9.1,3.3,12.4,17,4,22.7
	c-0.8,0.5-1.5,1.4-1.8,2.3C673.7,144.3,666.5,149,656.5,150L656.5,150z M630.6,144c-10.6-3.3-21.8-4.6-32.9-3.8
	c-6.8,0.4-13.5,2.2-19.5,5.5c-1.2,0.7-2.8,1.1-2.4,3.2c0.6,3.3,6.2,9,9.8,9.2c4.8,0.3,9.6,0.2,14.4-0.5
	C611.4,155.6,619,145.6,630.6,144L630.6,144z"/>
<path class="st0" d="M519.5,286l0.4,0.6l-0.5-0.4L519.5,286z"/>
<path class="st2" d="M656.5,150c10-1,17.2-5.7,20-15.9c0.3-0.9,1-1.7,1.8-2.3c8.4-5.7,5.1-19.4-4-22.7
	c-13.9-5.1-27.2-11.6-40.7-17.8c-6.8-3.1-13.6-6.3-20.3-9.7c-12.6-6.5-24.6-6.6-36.8,1.2c-12.9,8.2-27.4,13.5-41.1,20.3
	c-7,3.5-13.7,7.6-18.1,14.5c-2.1,3-3.4,6.5-3.7,10.2c-0.5,13.6-4.4,26.5-6.9,39.7c-2.1,10.9-4.1,21.9-5.1,32.9
	c-0.7,8.6,0.1,17.3,2.3,25.7c3,11.9,3.8,24.1,5.6,37c-7.2-4.1-11.4-10.1-15.8-15.5c-14-17.1-23.1-37.7-26.1-59.6
	c-5.2-37.7,4.2-71.6,29-100.8c20.5-24.1,46.8-38.4,77.8-42.7c35.6-5,68,3.9,96.3,26.4c23.9,19.1,39,43.8,44.9,73.9
	c7.4,37.8-1.1,72-24.6,102.2c-19.8,25.5-46.1,40.8-78,46.1c-6.2,1-12.5,1.2-18.8,2c-4.6,0.7-6.2-1.5-6.7-5.6
	c-0.7-6.4-1.6-12.9-2-19.3c-0.6-11.1-0.5-22.3-1.2-33.4c-0.3-5.6,1.5-9.8,5.9-12.9c22.2-15.7,38.8-37.9,62.4-51.9
	c8.7-5.2,9.2-10.2,4.5-19.4c-0.3-0.8-0.6-1.5-0.8-2.3L656.5,150L656.5,150z"/>
<path class="st2" d="M630.5,143.9c-11.5,1.7-19.2,11.6-30.7,13.6c-4.8,0.7-9.6,0.9-14.4,0.5c-3.6-0.2-9.2-5.9-9.8-9.2
	c-0.4-2.1,1.2-2.5,2.4-3.2c6-3.3,12.7-5.1,19.5-5.5C608.8,139.3,619.9,140.6,630.5,143.9L630.5,143.9z M656.2,150.2l-1.2-0.6
	c0.1-0.1,0.2-0.3,0.3-0.3c0.4,0.2,0.8,0.4,1.1,0.6L656.2,150.2L656.2,150.2z"/>
<g>
	<path class="st3" d="M169.5,2.1C259.6,2.3,336,72.4,337,167c1.1,102.5-81.3,170.3-167.5,170.1C76.9,337,2,261.9,2.1,169.3
		C2.1,77.1,77.1,2.1,169.5,2.1z M156.3,324.6c100-0.3,168.8-69.6,168.8-154.5c0-85.6-69.4-154.6-154.9-154.4
		c-85.9,0.2-156,70.8-154,157.7c1,42,16.6,78.1,46.8,107.4S129.8,324.3,156.3,324.6L156.3,324.6z"/>
	<path class="st3" d="M96,286.2c-1.9,0.1-3.1-1.2-4.3-2.1c-47.4-35-68.6-81.9-57.8-139.8S81,48.6,138.3,34.5
		c77.6-19.2,154.5,32.4,168.6,111.1c14,78.2-42.5,153.5-121.4,161.9c-7.3,0.8-14.6,0.7-22,0.8c-2.6,0-3.8-1-4.3-3.6
		c-4.9-24.3-5.6-48.9-5.3-73.6c0.1-4,2.1-6.9,4.8-9.5c7.4-7.5,16.7-12.8,23.9-20.4c12.8-13.4,27.1-25.3,42.5-35.4
		c5.2-3.5,5.1-7.7-0.2-11.4c-6.3-4.4-13.2-3.7-20.2-1.7c-4,1.2-7.6,3.5-11,5.8c-9,5.9-18.9,8-29.4,7.6c-8.1-0.3-16.4-7-19-14.9
		c-1.4-4.4-0.4-7.8,3.5-10.5c5.3-3.7,11.4-5.5,17.6-6.8c17.9-3.7,35.1,0.3,52.2,4.6c3.9,1,7.7,2.1,11.6,2.9
		c8.2,1.7,13.7-1.8,15.8-9.7c1-3.7,0.2-5.8-3.7-7.2c-11.2-3.8-22.2-8-33.3-12.1c-7.7-2.6-15.2-6-22.3-10c-4.5-2.7-10-3.2-14.8-1.3
		c-11.9,4.1-23.9,8.2-35.9,12.2c-2.1,0.7-4.2,1.8-6.6,1.4c-0.7-2.2,1-2.1,1.9-2.4c13.2-5.1,26.5-9.9,39.4-15.6
		c5.1-2.2,10.4-2.6,15.5,0.1c17.5,9.5,36.5,15.2,55,22.1c3.5,1.3,7.4,2.2,10.4,6.3c0.8-4.9,0-7.9-4-9.4
		c-22.4-8.5-43.9-19.2-65.5-29.5c-6.5-3.1-13.4-3.5-19.7,0.2c-15.2,8.9-31.4,15.9-47.3,23.6c-3.8,1.8-7.3,4.1-10.4,6.8
		c-4.1,3.3-6.6,8.1-6.9,13.3c-1,14.2-4.8,27.8-7.8,41.6c-4.5,20.7-5.6,41.2-0.8,62.3c3.9,16.9,5.7,34.4,6.9,51.9L96,286.2L96,286.2z
		 M233.2,150c-0.4-0.2-0.7-0.4-1.1-0.6l-0.3,0.3l1.2,0.6c0.2,0.8,0.5,1.6,0.8,2.3c4.6,9.3,4.2,14.3-4.5,19.4
		c-23.6,14.1-40.3,36.2-62.4,51.9c-4.4,3.1-6.2,7.4-5.9,12.9c0.7,11.1,0.6,22.3,1.2,33.4c0.3,6.5,1.3,12.9,2,19.3
		c0.4,4.1,2.1,6.2,6.7,5.6c6.2-0.9,12.6-1,18.8-2c31.9-5.4,58.2-20.7,78-46.1c23.5-30.2,32-64.4,24.6-102.2
		c-5.9-30.1-20.9-54.8-44.9-73.9c-28.3-22.5-60.7-31.5-96.3-26.4C120,48.8,93.8,63.1,73.3,87.2c-24.8,29.2-34.2,63.1-29,100.8
		c3,21.9,12.1,42.5,26.1,59.6c4.4,5.5,8.5,11.4,15.7,15.6c-1.8-13-2.6-25.2-5.6-37c-2.2-8.4-3-17.1-2.3-25.7c1-11.1,3-22,5.1-32.9
		c2.5-13.2,6.5-26.1,6.9-39.7c0.3-3.7,1.6-7.2,3.7-10.2c4.5-6.9,11.1-10.9,18.1-14.5c13.7-6.9,28.2-12.1,41.1-20.3
		c12.2-7.8,24.3-7.7,36.8-1.2c6.7,3.4,13.5,6.6,20.3,9.7c13.5,6.2,26.8,12.6,40.8,17.7c9.1,3.3,12.4,17,4,22.7
		c-0.8,0.5-1.5,1.4-1.8,2.3C250.4,144.3,243.2,149,233.2,150L233.2,150z M207.3,144c-10.6-3.3-21.8-4.6-32.9-3.8
		c-6.8,0.4-13.5,2.2-19.5,5.5c-1.2,0.7-2.8,1.1-2.4,3.2c0.6,3.3,6.2,9,9.8,9.2c4.8,0.3,9.6,0.2,14.4-0.5
		C188.1,155.6,195.7,145.6,207.3,144L207.3,144z"/>
</g>
<path class="st0" d="M96.2,286l0.4,0.6l-0.5-0.4L96.2,286z"/>
<path class="st0" d="M-251.5,2.1C-161.4,2.3-85,72.4-84,167c1.1,102.5-81.3,170.3-167.5,170.1c-92.6-0.1-167.5-75.2-167.4-167.8
	C-418.9,77.1-343.9,2.1-251.5,2.1z M-264.7,324.6c100-0.3,168.8-69.6,168.8-154.5c0-85.6-69.4-154.6-154.9-154.4
	c-85.9,0.2-156,70.8-154,157.7c1,42,16.6,78.1,46.8,107.4C-327.8,310.1-291.2,324.3-264.7,324.6L-264.7,324.6z"/>
<path class="st1" d="M-264.7,324.6c-26.5-0.3-63.1-14.5-93.2-43.8s-45.9-65.4-46.8-107.4c-2-86.9,68-157.5,154-157.7
	c85.4-0.2,154.8,68.8,154.8,154.4C-95.9,255-164.7,324.3-264.7,324.6L-264.7,324.6z M-325,286.2l0.5,0.4l-0.4-0.6
	c-1.1-17.5-3-34.9-6.9-51.9c-4.9-21.1-3.7-41.5,0.8-62.3c3-13.8,6.8-27.5,7.8-41.6c0.4-5.2,2.9-10,6.9-13.3c3.2-2.7,6.7-5,10.4-6.8
	c15.8-7.7,32-14.7,47.3-23.6c6.3-3.7,13.2-3.3,19.7-0.2c21.6,10.4,43.1,21,65.5,29.5c4,1.5,4.9,4.6,4,9.4c-3.1-4.1-6.9-4.9-10.4-6.3
	c-18.5-7-37.5-12.7-55-22.1c-5-2.7-10.3-2.4-15.5-0.1c-13,5.7-26.3,10.5-39.4,15.6c-0.9,0.3-2.6,0.3-1.9,2.4
	c2.3,0.4,4.4-0.7,6.6-1.4c12-4,23.9-8.1,35.9-12.2c4.9-1.9,10.4-1.4,14.8,1.3c7.1,4,14.5,7.4,22.3,10c11.1,4,22.2,8.2,33.3,12.1
	c3.9,1.4,4.7,3.5,3.7,7.2c-2.1,7.9-7.6,11.5-15.8,9.7c-3.9-0.8-7.7-2-11.6-2.9c-17.2-4.3-34.4-8.3-52.2-4.6
	c-6.2,1.3-12.3,3.1-17.6,6.8c-3.8,2.6-4.9,6.1-3.5,10.5c2.5,7.8,10.8,14.5,19,14.9c10.5,0.4,20.5-1.7,29.4-7.6c3.5-2.3,7-4.6,11-5.8
	c6.9-2,13.8-2.7,20.2,1.7c5.3,3.7,5.5,7.9,0.2,11.4c-15.5,10.1-29.7,22-42.5,35.4c-7.2,7.6-16.5,12.9-23.9,20.4
	c-2.7,2.7-4.7,5.6-4.8,9.5c-0.3,24.7,0.4,49.3,5.3,73.6c0.5,2.6,1.7,3.6,4.3,3.6c7.3-0.1,14.6,0,22-0.8
	c79-8.4,135.5-83.6,121.4-161.9c-14-78.8-90.9-130.3-168.5-111.1c-57.4,14.1-93.8,51.7-104.6,109.7c-10.8,58,10.4,104.9,57.8,139.9
	C-328.1,285-326.9,286.3-325,286.2L-325,286.2z"/>
<path class="st0" d="M-325,286.2c-1.9,0.1-3.1-1.2-4.3-2.1c-47.4-35-68.6-81.9-57.8-139.8S-340,48.6-282.7,34.5
	c77.6-19.2,154.5,32.4,168.6,111.1c14,78.2-42.5,153.5-121.4,161.9c-7.3,0.8-14.6,0.7-22,0.8c-2.6,0-3.8-1-4.3-3.6
	c-4.9-24.3-5.6-48.9-5.3-73.6c0.1-4,2.1-6.9,4.8-9.5c7.4-7.5,16.7-12.8,23.9-20.4c12.8-13.4,27.1-25.3,42.5-35.4
	c5.2-3.5,5.1-7.7-0.2-11.4c-6.3-4.4-13.2-3.7-20.2-1.7c-4,1.2-7.6,3.5-11,5.8c-9,5.9-18.9,8-29.4,7.6c-8.1-0.3-16.4-7-19-14.9
	c-1.4-4.4-0.4-7.8,3.5-10.5c5.3-3.7,11.4-5.5,17.6-6.8c17.9-3.7,35.1,0.3,52.2,4.6c3.9,1,7.7,2.1,11.6,2.9
	c8.2,1.7,13.7-1.8,15.8-9.7c1-3.7,0.2-5.8-3.7-7.2c-11.2-3.8-22.2-8-33.3-12.1c-7.7-2.6-15.2-6-22.3-10c-4.5-2.7-10-3.2-14.8-1.3
	c-11.9,4.1-23.9,8.2-35.9,12.2c-2.1,0.7-4.2,1.8-6.6,1.4c-0.7-2.2,1-2.1,1.9-2.4c13.2-5.1,26.5-9.9,39.4-15.6
	c5.1-2.2,10.4-2.6,15.5,0.1c17.5,9.5,36.5,15.2,55,22.1c3.5,1.3,7.4,2.2,10.4,6.3c0.8-4.9,0-7.9-4-9.4
	c-22.4-8.5-43.9-19.2-65.5-29.5c-6.5-3.1-13.4-3.5-19.7,0.2c-15.2,8.9-31.4,15.9-47.3,23.6c-3.8,1.8-7.3,4.1-10.4,6.8
	c-4.1,3.3-6.6,8.1-6.9,13.3c-1,14.2-4.8,27.8-7.8,41.6c-4.5,20.7-5.6,41.2-0.8,62.3c3.9,16.9,5.7,34.4,6.9,51.9L-325,286.2
	L-325,286.2z M-187.8,150c-0.4-0.2-0.7-0.4-1.1-0.6l-0.3,0.3l1.2,0.6c0.2,0.8,0.5,1.6,0.8,2.3c4.6,9.3,4.2,14.3-4.5,19.4
	c-23.6,14.1-40.3,36.2-62.4,51.9c-4.4,3.1-6.2,7.4-5.9,12.9c0.7,11.1,0.6,22.3,1.2,33.4c0.3,6.5,1.3,12.9,2,19.3
	c0.4,4.1,2.1,6.2,6.7,5.6c6.2-0.9,12.6-1,18.8-2c31.9-5.4,58.2-20.7,78-46.1c23.5-30.2,32-64.4,24.6-102.2
	c-5.9-30.1-20.9-54.8-44.9-73.9c-28.3-22.5-60.7-31.5-96.3-26.4c-31.1,4.3-57.3,18.6-77.8,42.7c-24.8,29.2-34.2,63.1-29,100.8
	c3,21.9,12.1,42.5,26.1,59.6c4.4,5.5,8.5,11.4,15.7,15.6c-1.8-13-2.6-25.2-5.6-37c-2.2-8.4-3-17.1-2.3-25.7c1-11.1,3-22,5.1-32.9
	c2.5-13.2,6.5-26.1,6.9-39.7c0.3-3.7,1.6-7.2,3.7-10.2c4.5-6.9,11.1-10.9,18.1-14.5c13.7-6.9,28.2-12.1,41.1-20.3
	c12.2-7.8,24.3-7.7,36.8-1.2c6.7,3.4,13.5,6.6,20.3,9.7c13.5,6.2,26.8,12.6,40.8,17.7c9.1,3.3,12.4,17,4,22.7
	c-0.8,0.5-1.5,1.4-1.8,2.3C-170.6,144.3-177.8,149-187.8,150L-187.8,150z M-213.7,144c-10.6-3.3-21.8-4.6-32.9-3.8
	c-6.8,0.4-13.5,2.2-19.5,5.5c-1.2,0.7-2.8,1.1-2.4,3.2c0.6,3.3,6.2,9,9.8,9.2c4.8,0.3,9.6,0.2,14.4-0.5
	C-232.9,155.6-225.3,145.6-213.7,144L-213.7,144z"/>
<path class="st0" d="M-324.8,286l0.4,0.6l-0.5-0.4L-324.8,286z"/>
<path class="st3" d="M-187.8,150c10-1,17.2-5.7,20-15.9c0.3-0.9,1-1.7,1.8-2.3c8.4-5.7,5.1-19.4-4-22.7
	c-13.9-5.1-27.2-11.6-40.7-17.8c-6.8-3.1-13.6-6.3-20.3-9.7c-12.6-6.5-24.6-6.6-36.8,1.2c-12.9,8.2-27.4,13.5-41.1,20.3
	c-7,3.5-13.7,7.6-18.1,14.5c-2.1,3-3.4,6.5-3.7,10.2c-0.5,13.6-4.4,26.5-6.9,39.7c-2.1,10.9-4.1,21.9-5.1,32.9
	c-0.7,8.6,0.1,17.3,2.3,25.7c3,11.9,3.8,24.1,5.6,37c-7.2-4.1-11.4-10.1-15.8-15.5c-14-17.1-23.1-37.7-26.1-59.6
	c-5.2-37.7,4.2-71.6,29-100.8c20.5-24.1,46.8-38.4,77.8-42.7c35.6-5,68,3.9,96.3,26.4c23.9,19.1,39,43.8,44.9,73.9
	c7.4,37.8-1.1,72-24.6,102.2c-19.8,25.5-46.1,40.8-78,46.1c-6.2,1-12.5,1.2-18.8,2c-4.6,0.7-6.2-1.5-6.7-5.6
	c-0.7-6.4-1.6-12.9-2-19.3c-0.6-11.1-0.5-22.3-1.2-33.4c-0.3-5.6,1.5-9.8,5.9-12.9c22.2-15.7,38.8-37.9,62.4-51.9
	c8.7-5.2,9.2-10.2,4.5-19.4c-0.3-0.8-0.6-1.5-0.8-2.3L-187.8,150L-187.8,150z"/>
<path class="st3" d="M-213.8,143.9c-11.5,1.7-19.2,11.6-30.7,13.6c-4.8,0.7-9.6,0.9-14.4,0.5c-3.6-0.2-9.2-5.9-9.8-9.2
	c-0.4-2.1,1.2-2.5,2.4-3.2c6-3.3,12.7-5.1,19.5-5.5C-235.5,139.3-224.4,140.6-213.8,143.9L-213.8,143.9z M-188.1,150.2l-1.2-0.6
	c0.1-0.1,0.2-0.3,0.3-0.3c0.4,0.2,0.8,0.4,1.1,0.6L-188.1,150.2L-188.1,150.2z"/>
</svg>
