<?xml version="1.0" encoding="utf-8"?>
<!-- Generator: Adobe Illustrator 24.0.3, SVG Export Plug-In . SVG Version: 6.00 Build 0)  -->
<svg version="1.1" id="paper" xmlns="http://www.w3.org/2000/svg" xmlns:xlink="http://www.w3.org/1999/xlink" x="0px" y="0px"
	 viewBox="0 0 340.2 340.2" style="enable-background:new 0 0 340.2 340.2;" xml:space="preserve">
<style type="text/css">
	.st0{fill:#F0EC7B;}
</style>
<title>paper</title>
<path class="st0" d="M69.8,303.4C-3.9,247.5-19.1,143.1,36.7,68.8C92.6-5.4,197.6-20,271,35.5c74.1,56,89.1,160.9,33.5,234.7
	C248.4,344.4,143.4,359.2,69.8,303.4L69.8,303.4z M47.4,75.7C-5,143.4,8.6,242.5,78.5,293.8c66.7,49.3,162.8,36.7,214.2-30.9
	c50.8-66.5,40.5-165.7-31.9-218.5C191.5-6.2,96.4,10.5,47.4,75.7z"/>
<path class="st0" d="M134.2,199.3c-3.3-9.3-6.7-18.9-9.9-28.2c-1.2-3.9-3.1-7.3-5.3-10.8c-3-4.1-9-5.3-14-3.3
	c-5.3,2.1-2.8,6-2.1,9.3c0.1,1.6,0.6,3,0.7,4.5c2.2,15.9,4.5,31.4,6.6,47.2c1,7.7,3.6,14.6,9.3,20c19.6,18.5,18.2,43.5,21,67.8
	c-2.5-0.6-4.2-1-6-1.5c-26.2-7.1-48.5-20.8-66.8-40.7C17.2,209.3,19.8,122.4,73.1,71c69.4-66.9,183.4-46.3,223,41.8
	c23.7,52.5,15.9,102.8-20.7,147.7c-16.3,20-37.5,33.5-62.1,41.9c-2.8,1-4.1,0.8-4.7-2.6c-1.7-10-2.5-19.8-1-29.8
	c2.3-14.1,5.3-28,9.4-41.4c9.6-34.1,8.6-68.4,2.2-102.8c-0.7-3.7-1.4-7.6-4-10.6c-1-1.6-3.2-2.2-4.8-1.8c-2,0.5-1.3,2.4-1.6,3.8
	c-1.8,20.2-1.7,40.6,0.6,60.7c0,1.7,0.6,3.2,1.5,4.7c-4.2,0.6-5.8-0.9-6.2-5.2c-2.5-22.3-2-44.5,0-66.8c0.5-6.9-1.9-9.6-8.9-10
	c-2.9-0.1-4.2,0.7-4.5,3.7c-1.8,14.2-3.5,28.4-3.5,42.7c0.1,10.5,0.4,21.1,0.4,31.7c-4.5,0.5-4.4,0.6-4.6-4.1
	c-1.1-25.1-0.1-49.9,3.6-74.8c0.5-3,0.7-5.7-2.8-7.1c-3.8-1.8-8.4-1-11.9,1.7c-3.5,2.8-7.5,5.8-6.5,11c1.4,8.7,1,17.3,0.7,25.9
	c-0.5,12.9-0.8,25.8-0.3,38.9c0,2.1,0.5,4.6-2.1,4.7c-2.9,0.2-2.4-2.7-2.3-4.4c0-9.7-0.1-19.3,0.1-28.9c0.1-10.8,1.3-21.6,0-32.3
	c-0.4-3.2-0.5-6.4-5-6.8c-4.4-0.4-8.7-0.7-11.5,3.8c-2.5,4.1-4.1,8.4-5.1,12.8c-2.1,10.8-2.8,21.9-2,32.8
	C139.8,168.2,137.3,183.6,134.2,199.3L134.2,199.3z M128.6,158.1c0.2-6.6,0.1-13.3,0.3-19.7c0.8-11.5,2.6-23,8.2-33.6
	c4.1-8.1,10.6-11.2,19.1-10.6c3.6,0.2,5.9-0.2,8.4-3.4c7.1-9.1,20.8-9.4,28.9-0.8c1.1,1.5,2.9,2.2,4.6,2.5c6.8,1,12.6,3.9,15.1,11.1
	c0.2,0.8,0.7,1.5,1.4,2c8.8,3.3,11.2,10.9,12.7,18.9c3.6,20.3,5.9,40.9,5.5,61.6c-0.4,13.8-4,27.2-6.9,40.8
	c-3.8,18-10,35.6-10.7,54.3c-0.1,1.1,0,2.3-0.1,3.4c0.1,3.1,0.9,4.2,4.3,2.8c13.4-5.5,25.7-13.5,36.1-23.5
	c26.7-25.5,40-57,39.8-93.9c-0.3-31.1-10.7-58.9-31.8-81.8c-31.7-34.5-71.1-47.7-117.2-40c-26.9,4.3-49.6,17.2-68.1,37.1
	c-22.7,24.3-34.3,53-34.4,86.1c0,34.6,12.3,64.6,37,89.2c12.1,12.1,26.7,21.7,42.5,28.3c1.9,0.8,4.3,2.7,6,1.3
	c1.8-1.1,0.2-3.7,0.1-5.6c-0.6-4.9-1.4-10-2.2-14.9c-1.5-9.8-6.7-17.7-13.4-24.6c-7.7-7.9-11.5-17.9-12.8-28.6
	c-1.9-15.6-4.2-31-6.2-46.6c-0.5-4.1-2.5-7.9-0.9-12.3c3.5-9.2,17.4-12.6,26.6-6.8c3.2,2,5.2,5.2,8,7.5l0.3,0.6L128.6,158.1
	L128.6,158.1z"/>
<path class="st0" d="M128.6,158.1l-0.1,0.7l-0.3-0.6L128.6,158.1L128.6,158.1z"/>
</svg>
